<svg xmlns="http://www.w3.org/2000/svg" xmlns:xlink="http://www.w3.org/1999/xlink" width="500" zoomAndPan="magnify" viewBox="0 0 375 374.999991" height="500" preserveAspectRatio="xMidYMid meet" version="1.0"><defs><clipPath id="1aa9312deb"><path d="M 23 10 L 353 10 L 353 338 L 23 338 Z M 23 10 " clip-rule="nonzero"/></clipPath><clipPath id="57c44c75fb"><path d="M 27.976562 6.382812 L 355.621094 14.585938 L 346.761719 368.476562 L 19.113281 360.273438 Z M 27.976562 6.382812 " clip-rule="nonzero"/></clipPath><clipPath id="a45bb83fa5"><path d="M 27.976562 6.382812 L 355.621094 14.585938 L 346.761719 368.476562 L 19.113281 360.273438 Z M 27.976562 6.382812 " clip-rule="nonzero"/></clipPath><clipPath id="db96370f54"><path d="M 23 37 L 352 37 L 352 365 L 23 365 Z M 23 37 " clip-rule="nonzero"/></clipPath><clipPath id="7df0f88cc7"><path d="M 27.976562 6.382812 L 355.621094 14.585938 L 346.761719 368.476562 L 19.113281 360.273438 Z M 27.976562 6.382812 " clip-rule="nonzero"/></clipPath><clipPath id="3307ade459"><path d="M 27.976562 6.382812 L 355.621094 14.585938 L 346.761719 368.476562 L 19.113281 360.273438 Z M 27.976562 6.382812 " clip-rule="nonzero"/></clipPath><clipPath id="6f823ab240"><path d="M 55 73 L 304 73 L 304 322 L 55 322 Z M 55 73 " clip-rule="nonzero"/></clipPath><clipPath id="c3c7243420"><path d="M 211.453125 406.933594 L -29.460938 228.15625 L 163.617188 -32.03125 L 404.53125 146.746094 Z M 211.453125 406.933594 " clip-rule="nonzero"/></clipPath><clipPath id="6ff20ff95c"><path d="M 211.453125 406.933594 L -29.460938 228.15625 L 163.617188 -32.03125 L 404.53125 146.746094 Z M 211.453125 406.933594 " clip-rule="nonzero"/></clipPath><clipPath id="273e7d866b"><path d="M 69 53 L 319 53 L 319 302 L 69 302 Z M 69 53 " clip-rule="nonzero"/></clipPath><clipPath id="52c738b6e8"><path d="M 211.453125 406.933594 L -29.460938 228.15625 L 163.617188 -32.03125 L 404.53125 146.746094 Z M 211.453125 406.933594 " clip-rule="nonzero"/></clipPath><clipPath id="2a6e77b33b"><path d="M 211.453125 406.933594 L -29.460938 228.15625 L 163.617188 -32.03125 L 404.53125 146.746094 Z M 211.453125 406.933594 " clip-rule="nonzero"/></clipPath></defs><rect x="-37.5" width="450" fill="#ffffff" y="-37.499999" height="449.999989" fill-opacity="1"/><rect x="-37.5" width="450" fill="#ffffff" y="-37.499999" height="449.999989" fill-opacity="1"/><g clip-path="url(#1aa9312deb)"><g clip-path="url(#57c44c75fb)"><g clip-path="url(#a45bb83fa5)"><path fill="#f88db9" d="M 185.027344 10.632812 C 226.421875 49.945312 309.679688 129.101562 350.90625 168.601562 C 350.90625 168.601562 352.023438 169.667969 352.023438 169.667969 L 350.941406 170.789062 L 311.332031 212.144531 C 285.328125 239.285156 217.707031 309.460938 190.800781 337.375 C 162.636719 310.148438 93.128906 242.945312 65.917969 216.480469 C 65.917969 216.480469 24.863281 176.554688 24.863281 176.554688 L 23.742188 175.464844 L 24.820312 174.359375 C 64.703125 133.5 144.984375 51.296875 185.027344 10.632812 Z M 185.027344 10.632812 C 145.78125 52.117188 66.488281 135.242188 27.066406 176.511719 C 27.066406 176.511719 27.023438 174.308594 27.023438 174.308594 C 73.148438 218.5625 145.667969 288.121094 192.148438 333.054688 C 192.148438 333.054688 189.289062 333.105469 189.289062 333.105469 C 234.296875 286.300781 303.984375 214.679688 348.714844 168.628906 C 348.714844 168.628906 348.753906 170.816406 348.753906 170.816406 C 307.828125 131.039062 225.765625 50.617188 185.027344 10.632812 Z M 185.027344 10.632812 " fill-opacity="1" fill-rule="nonzero"/></g></g></g><g clip-path="url(#db96370f54)"><g clip-path="url(#7df0f88cc7)"><g clip-path="url(#3307ade459)"><path fill="#f88db9" d="M 184.351562 37.601562 C 225.746094 76.910156 309.003906 156.070312 350.230469 195.570312 C 350.230469 195.570312 351.347656 196.632812 351.347656 196.632812 L 350.265625 197.757812 L 310.65625 239.109375 C 284.652344 266.253906 217.03125 336.429688 190.125 364.34375 C 161.960938 337.113281 92.453125 269.914062 65.242188 243.445312 C 65.242188 243.445312 24.1875 203.523438 24.1875 203.523438 L 23.066406 202.433594 L 24.148438 201.328125 C 64.027344 160.464844 144.308594 78.261719 184.351562 37.601562 Z M 184.351562 37.601562 C 145.105469 79.085938 65.8125 162.210938 26.390625 203.480469 C 26.390625 203.480469 26.347656 201.277344 26.347656 201.277344 C 72.476562 245.53125 144.992188 315.089844 191.472656 360.019531 C 191.472656 360.019531 188.613281 360.070312 188.613281 360.070312 C 233.621094 313.269531 303.308594 241.644531 348.039062 195.597656 C 348.039062 195.597656 348.082031 197.78125 348.082031 197.78125 C 307.160156 158 225.089844 77.566406 184.351562 37.585938 Z M 184.351562 37.601562 " fill-opacity="1" fill-rule="nonzero"/></g></g></g><g clip-path="url(#6f823ab240)"><g clip-path="url(#c3c7243420)"><g clip-path="url(#6ff20ff95c)"><path fill="#f88db9" d="M 96.230469 321.070312 C 85.96875 269.878906 65.375 166.84375 55.339844 115.59375 C 55.339844 115.59375 55.066406 114.210938 55.066406 114.210938 L 56.464844 113.941406 L 107.859375 103.867188 C 141.597656 97.257812 229.117188 80.378906 263.9375 73.667969 C 270.664062 108.859375 287.269531 195.710938 293.683594 229.832031 C 293.683594 229.832031 303.367188 281.304688 303.367188 281.304688 L 303.632812 282.710938 L 302.246094 282.96875 C 250.90625 292.53125 147.585938 311.742188 96.230469 321.070312 Z M 96.230469 321.070312 C 147.421875 310.710938 250.488281 290.289062 301.699219 280.175781 C 301.699219 280.175781 300.570312 281.847656 300.570312 281.847656 C 289.371094 224.464844 271.761719 134.265625 260.65625 76.191406 C 260.65625 76.191406 262.820312 77.65625 262.820312 77.65625 C 204.519531 88.964844 114.691406 105.839844 56.996094 116.730469 C 56.996094 116.730469 58.113281 115.074219 58.113281 115.074219 C 67.78125 166.371094 86.8125 269.722656 96.230469 321.070312 Z M 96.230469 321.070312 " fill-opacity="1" fill-rule="nonzero"/></g></g></g><g clip-path="url(#273e7d866b)"><g clip-path="url(#52c738b6e8)"><g clip-path="url(#2a6e77b33b)"><path fill="#f88db9" d="M 110.929688 301.257812 C 100.671875 250.066406 80.078125 147.03125 70.042969 95.78125 C 70.042969 95.78125 69.769531 94.398438 69.769531 94.398438 L 71.167969 94.128906 L 122.5625 84.054688 C 156.300781 77.445312 243.820312 60.566406 278.640625 53.855469 C 285.367188 89.046875 301.972656 175.898438 308.386719 210.019531 C 308.386719 210.019531 318.070312 261.492188 318.070312 261.492188 L 318.335938 262.898438 L 316.945312 263.15625 C 265.609375 272.71875 162.289062 291.929688 110.929688 301.257812 Z M 110.929688 301.257812 C 162.125 290.898438 265.191406 270.476562 316.402344 260.363281 C 316.402344 260.363281 315.273438 262.035156 315.273438 262.035156 C 304.074219 204.652344 286.460938 114.453125 275.355469 56.378906 C 275.355469 56.378906 277.519531 57.84375 277.519531 57.84375 C 219.222656 69.152344 129.394531 86.027344 71.695312 96.917969 C 71.695312 96.917969 72.816406 95.261719 72.816406 95.261719 C 82.472656 146.558594 101.507812 249.921875 110.921875 301.269531 Z M 110.929688 301.257812 " fill-opacity="1" fill-rule="nonzero"/></g></g></g></svg>